<svg width="834" height="1194" viewBox="0 0 834 1194" fill="none" xmlns="http://www.w3.org/2000/svg">
<g clip-path="url(#clip0_943_2490)">
<rect width="834" height="1194" fill="white"/>
<g opacity="0.3">
<circle cx="865.5" cy="433.5" r="532" stroke="#FFBC39" stroke-width="3"/>
<circle cx="865.5" cy="433.5" r="524" stroke="#FFBC39" stroke-width="3"/>
<circle cx="865.5" cy="433.5" r="516" stroke="#FFBC39" stroke-width="3"/>
<circle cx="865.5" cy="433.5" r="508" stroke="#FFBC39" stroke-width="3"/>
<circle cx="865.5" cy="433.5" r="500" stroke="#FFBC39" stroke-width="3"/>
<circle cx="865.5" cy="433.5" r="492" stroke="#FFBC39" stroke-width="3"/>
<circle cx="865.5" cy="433.5" r="484" stroke="#FFBC39" stroke-width="3"/>
<circle cx="865.5" cy="433.5" r="475" stroke="#FFBC39" stroke-width="3"/>
<circle cx="865.5" cy="433.5" r="467" stroke="#FFBC39" stroke-width="3"/>
<circle cx="865.5" cy="433.5" r="459" stroke="#FFBC39" stroke-width="3"/>
<circle cx="865.5" cy="433.5" r="451" stroke="#FFBC39" stroke-width="3"/>
<circle cx="865.5" cy="433.5" r="443" stroke="#FFBC39" stroke-width="3"/>
<circle cx="865.5" cy="433.5" r="435" stroke="#FFBC39" stroke-width="3"/>
<circle cx="865.5" cy="433.5" r="426" stroke="#FFBC39" stroke-width="3"/>
<circle cx="865.5" cy="433.5" r="418" stroke="#FFBC39" stroke-width="3"/>
<circle cx="865.5" cy="433.5" r="410" stroke="#FFBC39" stroke-width="3"/>
<circle cx="865.5" cy="433.5" r="402" stroke="#FFBC39" stroke-width="3"/>
<circle cx="865.5" cy="433.5" r="394" stroke="#FFBC39" stroke-width="3"/>
<circle cx="865.5" cy="433.5" r="386" stroke="#FFBC39" stroke-width="3"/>
<circle cx="865.5" cy="433.5" r="378" stroke="#FFBC39" stroke-width="3"/>
<circle cx="865.5" cy="433.5" r="369" stroke="#FFBC39" stroke-width="3"/>
<circle cx="865.5" cy="433.5" r="361" stroke="#FFBC39" stroke-width="3"/>
<circle cx="865.5" cy="433.5" r="353" stroke="#FFBC39" stroke-width="3"/>
<circle cx="865.5" cy="433.5" r="345" stroke="#FFBC39" stroke-width="3"/>
<circle cx="865.5" cy="433.5" r="337" stroke="#FFBC39" stroke-width="3"/>
<circle cx="865.5" cy="433.5" r="329" stroke="#FFBC39" stroke-width="3"/>
<circle cx="865.5" cy="433.5" r="320" stroke="#FFBC39" stroke-width="3"/>
<circle cx="865.5" cy="433.5" r="312" stroke="#FFBC39" stroke-width="3"/>
<circle cx="865.5" cy="433.5" r="304" stroke="#FFBC39" stroke-width="3"/>
<circle cx="865.5" cy="433.5" r="296" stroke="#FFBC39" stroke-width="3"/>
<circle cx="865.5" cy="433.5" r="288" stroke="#FFBC39" stroke-width="3"/>
<circle cx="865.5" cy="433.5" r="280" stroke="#FFBC39" stroke-width="3"/>
<circle cx="865.5" cy="433.5" r="272" stroke="#FFBC39" stroke-width="3"/>
<circle cx="865.5" cy="433.5" r="263" stroke="#FFBC39" stroke-width="3"/>
<circle cx="865.5" cy="433.5" r="255" stroke="#FFBC39" stroke-width="3"/>
<circle cx="865.5" cy="433.5" r="247" stroke="#FFBC39" stroke-width="3"/>
<circle cx="865.5" cy="433.5" r="239" stroke="#FFBC39" stroke-width="3"/>
<circle cx="865.5" cy="433.5" r="231" stroke="#FFBC39" stroke-width="3"/>
<circle cx="865.5" cy="433.5" r="223" stroke="#FFBC39" stroke-width="3"/>
<circle cx="865.5" cy="433.5" r="215" stroke="#FFBC39" stroke-width="3"/>
<circle cx="865.5" cy="433.5" r="206" stroke="#FFBC39" stroke-width="3"/>
<circle cx="865.5" cy="433.5" r="198" stroke="#FFBC39" stroke-width="3"/>
<circle cx="865.5" cy="433.5" r="190" stroke="#FFBC39" stroke-width="3"/>
<circle cx="865.5" cy="433.5" r="182" stroke="#FFBC39" stroke-width="3"/>
<circle cx="865.5" cy="433.5" r="174" stroke="#FFBC39" stroke-width="3"/>
<circle cx="865.5" cy="433.5" r="166" stroke="#FFBC39" stroke-width="3"/>
<circle cx="865.5" cy="433.5" r="157" stroke="#FFBC39" stroke-width="3"/>
<circle cx="865.5" cy="433.5" r="149" stroke="#FFBC39" stroke-width="3"/>
<circle cx="865.5" cy="433.5" r="141" stroke="#FFBC39" stroke-width="3"/>
<circle cx="865.5" cy="433.5" r="133" stroke="#FFBC39" stroke-width="3"/>
<circle cx="865.5" cy="433.5" r="125" stroke="#FFBC39" stroke-width="3"/>
<circle cx="865.5" cy="433.5" r="117" stroke="#FFBC39" stroke-width="3"/>
<circle cx="865.5" cy="433.5" r="109" stroke="#FFBC39" stroke-width="3"/>
<circle cx="865.5" cy="433.5" r="100" stroke="#FFBC39" stroke-width="3"/>
<circle cx="865.5" cy="433.5" r="92" stroke="#FFBC39" stroke-width="3"/>
<circle cx="865.5" cy="433.5" r="84" stroke="#FFBC39" stroke-width="3"/>
<circle cx="865.5" cy="433.5" r="76" stroke="#FFBC39" stroke-width="3"/>
<circle cx="865.5" cy="433.5" r="68" stroke="#FFBC39" stroke-width="3"/>
<circle cx="865.5" cy="433.5" r="60" stroke="#FFBC39" stroke-width="3"/>
<circle cx="865.5" cy="433.5" r="51" stroke="#FFBC39" stroke-width="3"/>
<circle cx="865.5" cy="433.5" r="43" stroke="#FFBC39" stroke-width="3"/>
<circle cx="865.5" cy="433.5" r="35" stroke="#FFBC39" stroke-width="3"/>
</g>
<g opacity="0.3">
<circle cx="189.5" cy="1068.5" r="532" stroke="#FFBC39" stroke-width="3"/>
<circle cx="189.5" cy="1068.5" r="524" stroke="#FFBC39" stroke-width="3"/>
<circle cx="189.5" cy="1068.5" r="516" stroke="#FFBC39" stroke-width="3"/>
<circle cx="189.5" cy="1068.5" r="508" stroke="#FFBC39" stroke-width="3"/>
<circle cx="189.5" cy="1068.5" r="500" stroke="#FFBC39" stroke-width="3"/>
<circle cx="189.5" cy="1068.5" r="492" stroke="#FFBC39" stroke-width="3"/>
<circle cx="189.5" cy="1068.5" r="484" stroke="#FFBC39" stroke-width="3"/>
<circle cx="189.5" cy="1068.5" r="475" stroke="#FFBC39" stroke-width="3"/>
<circle cx="189.5" cy="1068.5" r="467" stroke="#FFBC39" stroke-width="3"/>
<circle cx="189.5" cy="1068.5" r="459" stroke="#FFBC39" stroke-width="3"/>
<circle cx="189.5" cy="1068.5" r="451" stroke="#FFBC39" stroke-width="3"/>
<circle cx="189.5" cy="1068.5" r="443" stroke="#FFBC39" stroke-width="3"/>
<circle cx="189.5" cy="1068.5" r="435" stroke="#FFBC39" stroke-width="3"/>
<circle cx="189.5" cy="1068.5" r="426" stroke="#FFBC39" stroke-width="3"/>
<circle cx="189.5" cy="1068.5" r="418" stroke="#FFBC39" stroke-width="3"/>
<circle cx="189.5" cy="1068.5" r="410" stroke="#FFBC39" stroke-width="3"/>
<circle cx="189.5" cy="1068.5" r="402" stroke="#FFBC39" stroke-width="3"/>
<circle cx="189.5" cy="1068.5" r="394" stroke="#FFBC39" stroke-width="3"/>
<circle cx="189.5" cy="1068.5" r="386" stroke="#FFBC39" stroke-width="3"/>
<circle cx="189.5" cy="1068.5" r="378" stroke="#FFBC39" stroke-width="3"/>
<circle cx="189.5" cy="1068.5" r="369" stroke="#FFBC39" stroke-width="3"/>
<circle cx="189.5" cy="1068.5" r="361" stroke="#FFBC39" stroke-width="3"/>
<circle cx="189.5" cy="1068.5" r="353" stroke="#FFBC39" stroke-width="3"/>
<circle cx="189.5" cy="1068.5" r="345" stroke="#FFBC39" stroke-width="3"/>
<circle cx="189.5" cy="1068.5" r="337" stroke="#FFBC39" stroke-width="3"/>
<circle cx="189.5" cy="1068.5" r="329" stroke="#FFBC39" stroke-width="3"/>
<circle cx="189.5" cy="1068.5" r="320" stroke="#FFBC39" stroke-width="3"/>
<circle cx="189.5" cy="1068.5" r="312" stroke="#FFBC39" stroke-width="3"/>
<circle cx="189.5" cy="1068.5" r="304" stroke="#FFBC39" stroke-width="3"/>
<circle cx="189.5" cy="1068.5" r="296" stroke="#FFBC39" stroke-width="3"/>
<circle cx="189.5" cy="1068.5" r="288" stroke="#FFBC39" stroke-width="3"/>
<circle cx="189.5" cy="1068.5" r="280" stroke="#FFBC39" stroke-width="3"/>
<circle cx="189.5" cy="1068.5" r="272" stroke="#FFBC39" stroke-width="3"/>
<circle cx="189.5" cy="1068.5" r="263" stroke="#FFBC39" stroke-width="3"/>
<circle cx="189.5" cy="1068.5" r="255" stroke="#FFBC39" stroke-width="3"/>
<circle cx="189.5" cy="1068.5" r="247" stroke="#FFBC39" stroke-width="3"/>
<circle cx="189.5" cy="1068.5" r="239" stroke="#FFBC39" stroke-width="3"/>
<circle cx="189.5" cy="1068.5" r="231" stroke="#FFBC39" stroke-width="3"/>
<circle cx="189.5" cy="1068.5" r="223" stroke="#FFBC39" stroke-width="3"/>
<circle cx="189.5" cy="1068.5" r="215" stroke="#FFBC39" stroke-width="3"/>
<circle cx="189.5" cy="1068.5" r="206" stroke="#FFBC39" stroke-width="3"/>
<circle cx="189.5" cy="1068.5" r="198" stroke="#FFBC39" stroke-width="3"/>
<circle cx="189.5" cy="1068.5" r="190" stroke="#FFBC39" stroke-width="3"/>
<circle cx="189.5" cy="1068.5" r="182" stroke="#FFBC39" stroke-width="3"/>
<circle cx="189.5" cy="1068.5" r="174" stroke="#FFBC39" stroke-width="3"/>
<circle cx="189.5" cy="1068.5" r="166" stroke="#FFBC39" stroke-width="3"/>
<circle cx="189.5" cy="1068.5" r="157" stroke="#FFBC39" stroke-width="3"/>
<circle cx="189.5" cy="1068.5" r="149" stroke="#FFBC39" stroke-width="3"/>
<circle cx="189.5" cy="1068.5" r="141" stroke="#FFBC39" stroke-width="3"/>
<circle cx="189.5" cy="1068.5" r="133" stroke="#FFBC39" stroke-width="3"/>
<circle cx="189.5" cy="1068.5" r="125" stroke="#FFBC39" stroke-width="3"/>
<circle cx="189.5" cy="1068.5" r="117" stroke="#FFBC39" stroke-width="3"/>
<circle cx="189.5" cy="1068.5" r="109" stroke="#FFBC39" stroke-width="3"/>
<circle cx="189.5" cy="1068.5" r="100" stroke="#FFBC39" stroke-width="3"/>
<circle cx="189.5" cy="1068.5" r="92" stroke="#FFBC39" stroke-width="3"/>
<circle cx="189.5" cy="1068.5" r="84" stroke="#FFBC39" stroke-width="3"/>
<circle cx="189.5" cy="1068.5" r="76" stroke="#FFBC39" stroke-width="3"/>
<circle cx="189.5" cy="1068.5" r="68" stroke="#FFBC39" stroke-width="3"/>
<circle cx="189.5" cy="1068.5" r="60" stroke="#FFBC39" stroke-width="3"/>
<circle cx="189.5" cy="1068.5" r="51" stroke="#FFBC39" stroke-width="3"/>
<circle cx="189.5" cy="1068.5" r="43" stroke="#FFBC39" stroke-width="3"/>
<circle cx="189.5" cy="1068.5" r="35" stroke="#FFBC39" stroke-width="3"/>
<circle cx="189.5" cy="1068.5" r="27" stroke="#FFBC39" stroke-width="3"/>
<circle cx="189.5" cy="1068.5" r="19" stroke="#FFBC39" stroke-width="3"/>
<circle cx="189.5" cy="1068.5" r="11" stroke="#FFBC39" stroke-width="3"/>
<circle cx="189.5" cy="1068.5" r="3" stroke="#FFBC39" stroke-width="3"/>
</g>
</g>
<defs>
<clipPath id="clip0_943_2490">
<rect width="834" height="1194" fill="white"/>
</clipPath>
</defs>
</svg>
