<svg width="27" height="18" viewBox="0 0 27 18" fill="none" xmlns="http://www.w3.org/2000/svg">
<path d="M12.1 16.5C12.1 16.9 11.9583 17.25 11.675 17.55C11.3917 17.85 11.0333 18 10.6 18H1.5C1.08333 18 0.725 17.8583 0.425 17.575C0.141667 17.275 1.41561e-07 16.9167 1.41561e-07 16.5V2C1.41561e-07 1.56667 0.15 1.20833 0.45 0.924999C0.75 0.641666 1.1 0.499999 1.5 0.499999C1.9 0.499999 2.25 0.641666 2.55 0.924999C2.85 1.20833 3 1.56667 3 2V15H10.6C11.0333 15 11.3917 15.15 11.675 15.45C11.9583 15.75 12.1 16.1 12.1 16.5ZM24.9613 0.499999C25.3947 0.499999 25.753 0.649999 26.0363 0.949999C26.3197 1.25 26.4613 1.61667 26.4613 2.05C26.4613 2.46667 26.303 2.81667 25.9863 3.1C25.6863 3.36667 25.3447 3.5 24.9613 3.5H17.3613V8.75H23.3613C23.778 8.75 24.128 8.9 24.4113 9.2C24.7113 9.5 24.8613 9.84167 24.8613 10.225C24.8613 10.6083 24.7197 10.9583 24.4363 11.275C24.153 11.575 23.7947 11.725 23.3613 11.725H17.3613V16.5C17.3613 16.9333 17.203 17.2917 16.8863 17.575C16.5863 17.8583 16.2447 18 15.8613 18C15.478 18 15.128 17.8583 14.8113 17.575C14.5113 17.2917 14.3613 16.9333 14.3613 16.5V2C14.3613 1.58333 14.503 1.23333 14.7863 0.949999C15.0863 0.649999 15.4447 0.499999 15.8613 0.499999H24.9613Z" fill="#00C9B2"/>
</svg>
