<svg width="1050" height="1440" viewBox="0 0 1050 1440" fill="none" xmlns="http://www.w3.org/2000/svg">
<g clip-path="url(#clip0_943_2144)">
<rect width="1050" height="1440" fill="white"/>
<g opacity="0.3">
<circle cx="147.5" cy="634.5" r="606" stroke="#A6E767" stroke-width="3"/>
<circle cx="147.5" cy="634.5" r="598" stroke="#A6E767" stroke-width="3"/>
<circle cx="147.5" cy="634.5" r="590" stroke="#A6E767" stroke-width="3"/>
<circle cx="147.5" cy="634.5" r="581" stroke="#A6E767" stroke-width="3"/>
<circle cx="147.5" cy="634.5" r="573" stroke="#A6E767" stroke-width="3"/>
<circle cx="147.5" cy="634.5" r="565" stroke="#A6E767" stroke-width="3"/>
<circle cx="147.5" cy="634.5" r="557" stroke="#A6E767" stroke-width="3"/>
<circle cx="147.5" cy="634.5" r="549" stroke="#A6E767" stroke-width="3"/>
<circle cx="147.5" cy="634.5" r="541" stroke="#A6E767" stroke-width="3"/>
<circle cx="147.5" cy="634.5" r="532" stroke="#A6E767" stroke-width="3"/>
<circle cx="147.5" cy="634.5" r="524" stroke="#A6E767" stroke-width="3"/>
<circle cx="147.5" cy="634.5" r="516" stroke="#A6E767" stroke-width="3"/>
<circle cx="147.5" cy="634.5" r="508" stroke="#A6E767" stroke-width="3"/>
<circle cx="147.5" cy="634.5" r="500" stroke="#A6E767" stroke-width="3"/>
<circle cx="147.5" cy="634.5" r="492" stroke="#A6E767" stroke-width="3"/>
<circle cx="147.5" cy="634.5" r="484" stroke="#A6E767" stroke-width="3"/>
<circle cx="147.5" cy="634.5" r="475" stroke="#A6E767" stroke-width="3"/>
<circle cx="147.5" cy="634.5" r="467" stroke="#A6E767" stroke-width="3"/>
<circle cx="147.5" cy="634.5" r="459" stroke="#A6E767" stroke-width="3"/>
<circle cx="147.5" cy="634.5" r="451" stroke="#A6E767" stroke-width="3"/>
<circle cx="147.5" cy="634.5" r="443" stroke="#A6E767" stroke-width="3"/>
<circle cx="147.5" cy="634.5" r="435" stroke="#A6E767" stroke-width="3"/>
<circle cx="147.5" cy="634.5" r="426" stroke="#A6E767" stroke-width="3"/>
<circle cx="147.5" cy="634.5" r="418" stroke="#A6E767" stroke-width="3"/>
<circle cx="147.5" cy="634.5" r="410" stroke="#A6E767" stroke-width="3"/>
<circle cx="147.5" cy="634.5" r="402" stroke="#A6E767" stroke-width="3"/>
<circle cx="147.5" cy="634.5" r="394" stroke="#A6E767" stroke-width="3"/>
<circle cx="147.5" cy="634.5" r="386" stroke="#A6E767" stroke-width="3"/>
<circle cx="147.5" cy="634.5" r="378" stroke="#A6E767" stroke-width="3"/>
<circle cx="147.5" cy="634.5" r="369" stroke="#A6E767" stroke-width="3"/>
<circle cx="147.5" cy="634.5" r="361" stroke="#A6E767" stroke-width="3"/>
<circle cx="147.5" cy="634.5" r="353" stroke="#A6E767" stroke-width="3"/>
<circle cx="147.5" cy="634.5" r="345" stroke="#A6E767" stroke-width="3"/>
<circle cx="147.5" cy="634.5" r="337" stroke="#A6E767" stroke-width="3"/>
<circle cx="147.5" cy="634.5" r="329" stroke="#A6E767" stroke-width="3"/>
<circle cx="147.5" cy="634.5" r="320" stroke="#A6E767" stroke-width="3"/>
<circle cx="147.5" cy="634.5" r="312" stroke="#A6E767" stroke-width="3"/>
<circle cx="147.5" cy="634.5" r="304" stroke="#A6E767" stroke-width="3"/>
<circle cx="147.5" cy="634.5" r="296" stroke="#A6E767" stroke-width="3"/>
<circle cx="147.5" cy="634.5" r="288" stroke="#A6E767" stroke-width="3"/>
<circle cx="147.5" cy="634.5" r="280" stroke="#A6E767" stroke-width="3"/>
<circle cx="147.5" cy="634.5" r="272" stroke="#A6E767" stroke-width="3"/>
<circle cx="147.5" cy="634.5" r="263" stroke="#A6E767" stroke-width="3"/>
<circle cx="147.5" cy="634.5" r="255" stroke="#A6E767" stroke-width="3"/>
<circle cx="147.5" cy="634.5" r="247" stroke="#A6E767" stroke-width="3"/>
<circle cx="147.5" cy="634.5" r="239" stroke="#A6E767" stroke-width="3"/>
<circle cx="147.5" cy="634.5" r="231" stroke="#A6E767" stroke-width="3"/>
<circle cx="147.5" cy="634.5" r="223" stroke="#A6E767" stroke-width="3"/>
<circle cx="147.5" cy="634.5" r="215" stroke="#A6E767" stroke-width="3"/>
<circle cx="147.5" cy="634.5" r="206" stroke="#A6E767" stroke-width="3"/>
<circle cx="147.5" cy="634.5" r="198" stroke="#A6E767" stroke-width="3"/>
<circle cx="147.5" cy="634.5" r="190" stroke="#A6E767" stroke-width="3"/>
<circle cx="147.5" cy="634.5" r="182" stroke="#A6E767" stroke-width="3"/>
<circle cx="147.5" cy="634.5" r="174" stroke="#A6E767" stroke-width="3"/>
<circle cx="147.5" cy="634.5" r="166" stroke="#A6E767" stroke-width="3"/>
<circle cx="147.5" cy="634.5" r="157" stroke="#A6E767" stroke-width="3"/>
<circle cx="147.5" cy="634.5" r="149" stroke="#A6E767" stroke-width="3"/>
<circle cx="147.5" cy="634.5" r="141" stroke="#A6E767" stroke-width="3"/>
<circle cx="147.5" cy="634.5" r="133" stroke="#A6E767" stroke-width="3"/>
<circle cx="147.5" cy="634.5" r="125" stroke="#A6E767" stroke-width="3"/>
<circle cx="147.5" cy="634.5" r="117" stroke="#A6E767" stroke-width="3"/>
<circle cx="147.5" cy="634.5" r="109" stroke="#A6E767" stroke-width="3"/>
<circle cx="147.5" cy="634.5" r="100" stroke="#A6E767" stroke-width="3"/>
<circle cx="147.5" cy="634.5" r="92" stroke="#A6E767" stroke-width="3"/>
<circle cx="147.5" cy="634.5" r="84" stroke="#A6E767" stroke-width="3"/>
<circle cx="147.5" cy="634.5" r="76" stroke="#A6E767" stroke-width="3"/>
<circle cx="147.5" cy="634.5" r="68" stroke="#A6E767" stroke-width="3"/>
<circle cx="147.5" cy="634.5" r="60" stroke="#A6E767" stroke-width="3"/>
<circle cx="147.5" cy="634.5" r="51" stroke="#A6E767" stroke-width="3"/>
<circle cx="147.5" cy="634.5" r="43" stroke="#A6E767" stroke-width="3"/>
<circle cx="147.5" cy="634.5" r="35" stroke="#A6E767" stroke-width="3"/>
<circle cx="147.5" cy="634.5" r="27" stroke="#A6E767" stroke-width="3"/>
<circle cx="147.5" cy="634.5" r="19" stroke="#A6E767" stroke-width="3"/>
<circle cx="147.5" cy="634.5" r="11" stroke="#A6E767" stroke-width="3"/>
<circle cx="147.5" cy="634.5" r="3" stroke="#A6E767" stroke-width="3"/>
</g>
</g>
<defs>
<clipPath id="clip0_943_2144">
<rect width="1050" height="1440" fill="white"/>
</clipPath>
</defs>
</svg>
