<svg width="480" height="926" viewBox="0 0 480 926" fill="none" xmlns="http://www.w3.org/2000/svg">
<g clip-path="url(#clip0_771_7780)">
<g opacity="0.3">
<circle cx="-337.5" cy="611.5" r="777" stroke="#A6E767" stroke-width="3"/>
<circle cx="-337.5" cy="611.5" r="769" stroke="#A6E767" stroke-width="3"/>
<circle cx="-337.5" cy="611.5" r="761" stroke="#A6E767" stroke-width="3"/>
<circle cx="-337.5" cy="611.5" r="744" stroke="#A6E767" stroke-width="3"/>
<circle cx="-337.5" cy="611.5" r="753" stroke="#A6E767" stroke-width="3"/>
<circle cx="-337.5" cy="611.5" r="736" stroke="#A6E767" stroke-width="3"/>
<circle cx="-337.5" cy="611.5" r="728" stroke="#A6E767" stroke-width="3"/>
<circle cx="-337.5" cy="611.5" r="720" stroke="#A6E767" stroke-width="3"/>
<circle cx="-337.5" cy="611.5" r="712" stroke="#A6E767" stroke-width="3"/>
<circle cx="-337.5" cy="611.5" r="704" stroke="#A6E767" stroke-width="3"/>
<circle cx="-337.5" cy="611.5" r="704" stroke="#A6E767" stroke-width="3"/>
<circle cx="-337.5" cy="611.5" r="695" stroke="#A6E767" stroke-width="3"/>
<circle cx="-337.5" cy="611.5" r="687" stroke="#A6E767" stroke-width="3"/>
<circle cx="-337.5" cy="611.5" r="679" stroke="#A6E767" stroke-width="3"/>
<circle cx="-337.5" cy="611.5" r="671" stroke="#A6E767" stroke-width="3"/>
<circle cx="-337.5" cy="611.5" r="663" stroke="#A6E767" stroke-width="3"/>
<circle cx="-337.5" cy="611.5" r="655" stroke="#A6E767" stroke-width="3"/>
<circle cx="-337.5" cy="611.5" r="647" stroke="#A6E767" stroke-width="3"/>
<circle cx="-337.5" cy="611.5" r="638" stroke="#A6E767" stroke-width="3"/>
<circle cx="-337.5" cy="611.5" r="630" stroke="#A6E767" stroke-width="3"/>
<circle cx="-337.5" cy="611.5" r="622" stroke="#A6E767" stroke-width="3"/>
<circle cx="-337.5" cy="611.5" r="614" stroke="#A6E767" stroke-width="3"/>
<circle cx="-337.5" cy="611.5" r="606" stroke="#A6E767" stroke-width="3"/>
<circle cx="-337.5" cy="611.5" r="598" stroke="#A6E767" stroke-width="3"/>
<circle cx="-337.5" cy="611.5" r="590" stroke="#A6E767" stroke-width="3"/>
<circle cx="-337.5" cy="611.5" r="581" stroke="#A6E767" stroke-width="3"/>
<circle cx="-337.5" cy="611.5" r="573" stroke="#A6E767" stroke-width="3"/>
<circle cx="-337.5" cy="611.5" r="565" stroke="#A6E767" stroke-width="3"/>
<circle cx="-337.5" cy="611.5" r="557" stroke="#A6E767" stroke-width="3"/>
<circle cx="-337.5" cy="611.5" r="549" stroke="#A6E767" stroke-width="3"/>
<circle cx="-337.5" cy="611.5" r="541" stroke="#A6E767" stroke-width="3"/>
<circle cx="-337.5" cy="611.5" r="532" stroke="#A6E767" stroke-width="3"/>
<circle cx="-337.5" cy="611.5" r="524" stroke="#A6E767" stroke-width="3"/>
<circle cx="-337.5" cy="611.5" r="516" stroke="#A6E767" stroke-width="3"/>
<circle cx="-337.5" cy="611.5" r="508" stroke="#A6E767" stroke-width="3"/>
<circle cx="-337.5" cy="611.5" r="500" stroke="#A6E767" stroke-width="3"/>
<circle cx="-337.5" cy="611.5" r="492" stroke="#A6E767" stroke-width="3"/>
<circle cx="-337.5" cy="611.5" r="484" stroke="#A6E767" stroke-width="3"/>
<circle cx="-337.5" cy="611.5" r="475" stroke="#A6E767" stroke-width="3"/>
<circle cx="-337.5" cy="611.5" r="467" stroke="#A6E767" stroke-width="3"/>
<circle cx="-337.5" cy="611.5" r="459" stroke="#A6E767" stroke-width="3"/>
<circle cx="-337.5" cy="611.5" r="451" stroke="#A6E767" stroke-width="3"/>
<circle cx="-337.5" cy="611.5" r="443" stroke="#A6E767" stroke-width="3"/>
<circle cx="-337.5" cy="611.5" r="435" stroke="#A6E767" stroke-width="3"/>
<circle cx="-337.5" cy="611.5" r="426" stroke="#A6E767" stroke-width="3"/>
<circle cx="-337.5" cy="611.5" r="418" stroke="#A6E767" stroke-width="3"/>
<circle cx="-337.5" cy="611.5" r="410" stroke="#A6E767" stroke-width="3"/>
<circle cx="-337.5" cy="611.5" r="402" stroke="#A6E767" stroke-width="3"/>
<circle cx="-337.5" cy="611.5" r="394" stroke="#A6E767" stroke-width="3"/>
<circle cx="-337.5" cy="611.5" r="386" stroke="#A6E767" stroke-width="3"/>
<circle cx="-337.5" cy="611.5" r="378" stroke="#A6E767" stroke-width="3"/>
<circle cx="-337.5" cy="611.5" r="369" stroke="#A6E767" stroke-width="3"/>
<circle cx="-337.5" cy="611.5" r="361" stroke="#A6E767" stroke-width="3"/>
<circle cx="-337.5" cy="611.5" r="353" stroke="#A6E767" stroke-width="3"/>
<circle cx="-337.5" cy="611.5" r="345" stroke="#A6E767" stroke-width="3"/>
<circle cx="-337.5" cy="611.5" r="337" stroke="#A6E767" stroke-width="3"/>
</g>
</g>
<defs>
<clipPath id="clip0_771_7780">
<rect width="480" height="926" fill="white"/>
</clipPath>
</defs>
</svg>
