<svg width="480" height="1017" viewBox="0 0 480 1017" fill="none" xmlns="http://www.w3.org/2000/svg">
<g clip-path="url(#clip0_944_2721)">
<rect width="480" height="1017" fill="white"/>
<g opacity="0.3">
<circle cx="-41.5" cy="541.5" r="459" stroke="#A6E767" stroke-width="3"/>
<circle cx="-41.5" cy="541.5" r="451" stroke="#A6E767" stroke-width="3"/>
<circle cx="-41.5" cy="541.5" r="443" stroke="#A6E767" stroke-width="3"/>
<circle cx="-41.5" cy="541.5" r="435" stroke="#A6E767" stroke-width="3"/>
<circle cx="-41.5" cy="541.5" r="426" stroke="#A6E767" stroke-width="3"/>
<circle cx="-41.5" cy="541.5" r="418" stroke="#A6E767" stroke-width="3"/>
<circle cx="-41.5" cy="541.5" r="410" stroke="#A6E767" stroke-width="3"/>
<circle cx="-41.5" cy="541.5" r="402" stroke="#A6E767" stroke-width="3"/>
<circle cx="-41.5" cy="541.5" r="394" stroke="#A6E767" stroke-width="3"/>
<circle cx="-41.5" cy="541.5" r="386" stroke="#A6E767" stroke-width="3"/>
<circle cx="-41.5" cy="541.5" r="378" stroke="#A6E767" stroke-width="3"/>
<circle cx="-41.5" cy="541.5" r="369" stroke="#A6E767" stroke-width="3"/>
<circle cx="-41.5" cy="541.5" r="361" stroke="#A6E767" stroke-width="3"/>
<circle cx="-41.5" cy="541.5" r="353" stroke="#A6E767" stroke-width="3"/>
<circle cx="-41.5" cy="541.5" r="345" stroke="#A6E767" stroke-width="3"/>
<circle cx="-41.5" cy="541.5" r="337" stroke="#A6E767" stroke-width="3"/>
<circle cx="-41.5" cy="541.5" r="329" stroke="#A6E767" stroke-width="3"/>
<circle cx="-41.5" cy="541.5" r="320" stroke="#A6E767" stroke-width="3"/>
<circle cx="-41.5" cy="541.5" r="312" stroke="#A6E767" stroke-width="3"/>
<circle cx="-41.5" cy="541.5" r="304" stroke="#A6E767" stroke-width="3"/>
<circle cx="-41.5" cy="541.5" r="296" stroke="#A6E767" stroke-width="3"/>
<circle cx="-41.5" cy="541.5" r="288" stroke="#A6E767" stroke-width="3"/>
<circle cx="-41.5" cy="541.5" r="280" stroke="#A6E767" stroke-width="3"/>
<circle cx="-41.5" cy="541.5" r="272" stroke="#A6E767" stroke-width="3"/>
<circle cx="-41.5" cy="541.5" r="263" stroke="#A6E767" stroke-width="3"/>
<circle cx="-41.5" cy="541.5" r="255" stroke="#A6E767" stroke-width="3"/>
<circle cx="-41.5" cy="541.5" r="247" stroke="#A6E767" stroke-width="3"/>
<circle cx="-41.5" cy="541.5" r="239" stroke="#A6E767" stroke-width="3"/>
<circle cx="-41.5" cy="541.5" r="231" stroke="#A6E767" stroke-width="3"/>
<circle cx="-41.5" cy="541.5" r="223" stroke="#A6E767" stroke-width="3"/>
<circle cx="-41.5" cy="541.5" r="215" stroke="#A6E767" stroke-width="3"/>
<circle cx="-41.5" cy="541.5" r="206" stroke="#A6E767" stroke-width="3"/>
<circle cx="-41.5" cy="541.5" r="198" stroke="#A6E767" stroke-width="3"/>
<circle cx="-41.5" cy="541.5" r="190" stroke="#A6E767" stroke-width="3"/>
<circle cx="-41.5" cy="541.5" r="182" stroke="#A6E767" stroke-width="3"/>
<circle cx="-41.5" cy="541.5" r="174" stroke="#A6E767" stroke-width="3"/>
<circle cx="-41.5" cy="541.5" r="166" stroke="#A6E767" stroke-width="3"/>
<circle cx="-41.5" cy="541.5" r="157" stroke="#A6E767" stroke-width="3"/>
<circle cx="-41.5" cy="541.5" r="149" stroke="#A6E767" stroke-width="3"/>
<circle cx="-41.5" cy="541.5" r="141" stroke="#A6E767" stroke-width="3"/>
<circle cx="-41.5" cy="541.5" r="133" stroke="#A6E767" stroke-width="3"/>
<circle cx="-41.5" cy="541.5" r="125" stroke="#A6E767" stroke-width="3"/>
<circle cx="-41.5" cy="541.5" r="117" stroke="#A6E767" stroke-width="3"/>
<circle cx="-41.5" cy="541.5" r="109" stroke="#A6E767" stroke-width="3"/>
<circle cx="-41.5" cy="541.5" r="100" stroke="#A6E767" stroke-width="3"/>
<circle cx="-41.5" cy="541.5" r="92" stroke="#A6E767" stroke-width="3"/>
<circle cx="-41.5" cy="541.5" r="84" stroke="#A6E767" stroke-width="3"/>
<circle cx="-41.5" cy="541.5" r="76" stroke="#A6E767" stroke-width="3"/>
<circle cx="-41.5" cy="541.5" r="68" stroke="#A6E767" stroke-width="3"/>
<circle cx="-41.5" cy="541.5" r="60" stroke="#A6E767" stroke-width="3"/>
<circle cx="-41.5" cy="541.5" r="51" stroke="#A6E767" stroke-width="3"/>
<circle cx="-41.5" cy="541.5" r="43" stroke="#A6E767" stroke-width="3"/>
</g>
</g>
<defs>
<clipPath id="clip0_944_2721">
<rect width="480" height="1017" fill="white"/>
</clipPath>
</defs>
</svg>
