<svg width="430" height="1308" viewBox="0 0 430 1308" fill="none" xmlns="http://www.w3.org/2000/svg">
<g clip-path="url(#clip0_1003_5472)">
<rect width="430" height="1308" fill="white"/>
<g opacity="0.3">
<circle cx="450.5" cy="377.5" r="361" stroke="#FFBC39" stroke-width="3"/>
<circle cx="450.5" cy="377.5" r="353" stroke="#FFBC39" stroke-width="3"/>
<circle cx="450.5" cy="377.5" r="345" stroke="#FFBC39" stroke-width="3"/>
<circle cx="450.5" cy="377.5" r="337" stroke="#FFBC39" stroke-width="3"/>
<circle cx="450.5" cy="377.5" r="329" stroke="#FFBC39" stroke-width="3"/>
<circle cx="450.5" cy="377.5" r="320" stroke="#FFBC39" stroke-width="3"/>
<circle cx="450.5" cy="377.5" r="312" stroke="#FFBC39" stroke-width="3"/>
<circle cx="450.5" cy="377.5" r="304" stroke="#FFBC39" stroke-width="3"/>
<circle cx="450.5" cy="377.5" r="296" stroke="#FFBC39" stroke-width="3"/>
<circle cx="450.5" cy="377.5" r="288" stroke="#FFBC39" stroke-width="3"/>
<circle cx="450.5" cy="377.5" r="280" stroke="#FFBC39" stroke-width="3"/>
<circle cx="450.5" cy="377.5" r="272" stroke="#FFBC39" stroke-width="3"/>
<circle cx="450.5" cy="377.5" r="263" stroke="#FFBC39" stroke-width="3"/>
<circle cx="450.5" cy="377.5" r="255" stroke="#FFBC39" stroke-width="3"/>
<circle cx="450.5" cy="377.5" r="247" stroke="#FFBC39" stroke-width="3"/>
<circle cx="450.5" cy="377.5" r="239" stroke="#FFBC39" stroke-width="3"/>
<circle cx="450.5" cy="377.5" r="231" stroke="#FFBC39" stroke-width="3"/>
<circle cx="450.5" cy="377.5" r="223" stroke="#FFBC39" stroke-width="3"/>
<circle cx="450.5" cy="377.5" r="215" stroke="#FFBC39" stroke-width="3"/>
<circle cx="450.5" cy="377.5" r="206" stroke="#FFBC39" stroke-width="3"/>
<circle cx="450.5" cy="377.5" r="198" stroke="#FFBC39" stroke-width="3"/>
<circle cx="450.5" cy="377.5" r="190" stroke="#FFBC39" stroke-width="3"/>
<circle cx="450.5" cy="377.5" r="182" stroke="#FFBC39" stroke-width="3"/>
<circle cx="450.5" cy="377.5" r="174" stroke="#FFBC39" stroke-width="3"/>
<circle cx="450.5" cy="377.5" r="166" stroke="#FFBC39" stroke-width="3"/>
<circle cx="450.5" cy="377.5" r="157" stroke="#FFBC39" stroke-width="3"/>
<circle cx="450.5" cy="377.5" r="149" stroke="#FFBC39" stroke-width="3"/>
<circle cx="450.5" cy="377.5" r="141" stroke="#FFBC39" stroke-width="3"/>
<circle cx="450.5" cy="377.5" r="133" stroke="#FFBC39" stroke-width="3"/>
<circle cx="450.5" cy="377.5" r="125" stroke="#FFBC39" stroke-width="3"/>
<circle cx="450.5" cy="377.5" r="117" stroke="#FFBC39" stroke-width="3"/>
<circle cx="450.5" cy="377.5" r="109" stroke="#FFBC39" stroke-width="3"/>
<circle cx="450.5" cy="377.5" r="100" stroke="#FFBC39" stroke-width="3"/>
<circle cx="450.5" cy="377.5" r="92" stroke="#FFBC39" stroke-width="3"/>
<circle cx="450.5" cy="377.5" r="84" stroke="#FFBC39" stroke-width="3"/>
<circle cx="450.5" cy="377.5" r="76" stroke="#FFBC39" stroke-width="3"/>
<circle cx="450.5" cy="377.5" r="68" stroke="#FFBC39" stroke-width="3"/>
<circle cx="450.5" cy="377.5" r="60" stroke="#FFBC39" stroke-width="3"/>
<circle cx="450.5" cy="377.5" r="51" stroke="#FFBC39" stroke-width="3"/>
<circle cx="450.5" cy="377.5" r="43" stroke="#FFBC39" stroke-width="3"/>
<circle cx="450.5" cy="377.5" r="35" stroke="#FFBC39" stroke-width="3"/>
<circle cx="450.5" cy="377.5" r="27" stroke="#FFBC39" stroke-width="3"/>
</g>
<g opacity="0.3">
<circle cx="10.5" cy="850.5" r="361" stroke="#FFBC39" stroke-width="3"/>
<circle cx="10.5" cy="850.5" r="353" stroke="#FFBC39" stroke-width="3"/>
<circle cx="10.5" cy="850.5" r="345" stroke="#FFBC39" stroke-width="3"/>
<circle cx="10.5" cy="850.5" r="337" stroke="#FFBC39" stroke-width="3"/>
<circle cx="10.5" cy="850.5" r="329" stroke="#FFBC39" stroke-width="3"/>
<circle cx="10.5" cy="850.5" r="320" stroke="#FFBC39" stroke-width="3"/>
<circle cx="10.5" cy="850.5" r="312" stroke="#FFBC39" stroke-width="3"/>
<circle cx="10.5" cy="850.5" r="304" stroke="#FFBC39" stroke-width="3"/>
<circle cx="10.5" cy="850.5" r="296" stroke="#FFBC39" stroke-width="3"/>
<circle cx="10.5" cy="850.5" r="288" stroke="#FFBC39" stroke-width="3"/>
<circle cx="10.5" cy="850.5" r="280" stroke="#FFBC39" stroke-width="3"/>
<circle cx="10.5" cy="850.5" r="272" stroke="#FFBC39" stroke-width="3"/>
<circle cx="10.5" cy="850.5" r="263" stroke="#FFBC39" stroke-width="3"/>
<circle cx="10.5" cy="850.5" r="255" stroke="#FFBC39" stroke-width="3"/>
<circle cx="10.5" cy="850.5" r="247" stroke="#FFBC39" stroke-width="3"/>
<circle cx="10.5" cy="850.5" r="239" stroke="#FFBC39" stroke-width="3"/>
<circle cx="10.5" cy="850.5" r="231" stroke="#FFBC39" stroke-width="3"/>
<circle cx="10.5" cy="850.5" r="223" stroke="#FFBC39" stroke-width="3"/>
<circle cx="10.5" cy="850.5" r="215" stroke="#FFBC39" stroke-width="3"/>
<circle cx="10.5" cy="850.5" r="206" stroke="#FFBC39" stroke-width="3"/>
<circle cx="10.5" cy="850.5" r="198" stroke="#FFBC39" stroke-width="3"/>
<circle cx="10.5" cy="850.5" r="190" stroke="#FFBC39" stroke-width="3"/>
<circle cx="10.5" cy="850.5" r="182" stroke="#FFBC39" stroke-width="3"/>
<circle cx="10.5" cy="850.5" r="174" stroke="#FFBC39" stroke-width="3"/>
<circle cx="10.5" cy="850.5" r="166" stroke="#FFBC39" stroke-width="3"/>
<circle cx="10.5" cy="850.5" r="157" stroke="#FFBC39" stroke-width="3"/>
<circle cx="10.5" cy="850.5" r="149" stroke="#FFBC39" stroke-width="3"/>
<circle cx="10.5" cy="850.5" r="141" stroke="#FFBC39" stroke-width="3"/>
<circle cx="10.5" cy="850.5" r="133" stroke="#FFBC39" stroke-width="3"/>
<circle cx="10.5" cy="850.5" r="125" stroke="#FFBC39" stroke-width="3"/>
<circle cx="10.5" cy="850.5" r="117" stroke="#FFBC39" stroke-width="3"/>
<circle cx="10.5" cy="850.5" r="109" stroke="#FFBC39" stroke-width="3"/>
<circle cx="10.5" cy="850.5" r="100" stroke="#FFBC39" stroke-width="3"/>
<circle cx="10.5" cy="850.5" r="92" stroke="#FFBC39" stroke-width="3"/>
<circle cx="10.5" cy="850.5" r="84" stroke="#FFBC39" stroke-width="3"/>
<circle cx="10.5" cy="850.5" r="76" stroke="#FFBC39" stroke-width="3"/>
<circle cx="10.5" cy="850.5" r="68" stroke="#FFBC39" stroke-width="3"/>
<circle cx="10.5" cy="850.5" r="60" stroke="#FFBC39" stroke-width="3"/>
<circle cx="10.5" cy="850.5" r="51" stroke="#FFBC39" stroke-width="3"/>
<circle cx="10.5" cy="850.5" r="43" stroke="#FFBC39" stroke-width="3"/>
<circle cx="10.5" cy="850.5" r="35" stroke="#FFBC39" stroke-width="3"/>
<circle cx="10.5" cy="850.5" r="27" stroke="#FFBC39" stroke-width="3"/>
<circle cx="10.5" cy="850.5" r="19" stroke="#FFBC39" stroke-width="3"/>
<circle cx="10.5" cy="850.5" r="11" stroke="#FFBC39" stroke-width="3"/>
<circle cx="10.5" cy="850.5" r="3" stroke="#FFBC39" stroke-width="3"/>
</g>
</g>
<defs>
<clipPath id="clip0_1003_5472">
<rect width="430" height="1308" fill="white"/>
</clipPath>
</defs>
</svg>
