<svg width="1740" height="2432" viewBox="0 0 1740 2432" fill="none" xmlns="http://www.w3.org/2000/svg">
<g clip-path="url(#clip0_711_6223)">
<rect width="1740" height="2432" fill="white"/>
<g opacity="0.3">
<circle cx="358.5" cy="1071.5" r="777" stroke="#FFBC39" stroke-width="3"/>
<circle cx="358.5" cy="1071.5" r="769" stroke="#FFBC39" stroke-width="3"/>
<circle cx="358.5" cy="1071.5" r="761" stroke="#FFBC39" stroke-width="3"/>
<circle cx="358.5" cy="1071.5" r="744" stroke="#FFBC39" stroke-width="3"/>
<circle cx="358.5" cy="1071.5" r="753" stroke="#FFBC39" stroke-width="3"/>
<circle cx="358.5" cy="1071.5" r="736" stroke="#FFBC39" stroke-width="3"/>
<circle cx="358.5" cy="1071.5" r="728" stroke="#FFBC39" stroke-width="3"/>
<circle cx="358.5" cy="1071.5" r="720" stroke="#FFBC39" stroke-width="3"/>
<circle cx="358.5" cy="1071.5" r="712" stroke="#FFBC39" stroke-width="3"/>
<circle cx="358.5" cy="1071.5" r="704" stroke="#FFBC39" stroke-width="3"/>
<circle cx="358.5" cy="1071.5" r="704" stroke="#FFBC39" stroke-width="3"/>
<circle cx="358.5" cy="1071.5" r="695" stroke="#FFBC39" stroke-width="3"/>
<circle cx="358.5" cy="1071.5" r="687" stroke="#FFBC39" stroke-width="3"/>
<circle cx="358.5" cy="1071.5" r="679" stroke="#FFBC39" stroke-width="3"/>
<circle cx="358.5" cy="1071.5" r="671" stroke="#FFBC39" stroke-width="3"/>
<circle cx="358.5" cy="1071.5" r="663" stroke="#FFBC39" stroke-width="3"/>
<circle cx="358.5" cy="1071.5" r="655" stroke="#FFBC39" stroke-width="3"/>
<circle cx="358.5" cy="1071.5" r="647" stroke="#FFBC39" stroke-width="3"/>
<circle cx="358.5" cy="1071.5" r="638" stroke="#FFBC39" stroke-width="3"/>
<circle cx="358.5" cy="1071.5" r="630" stroke="#FFBC39" stroke-width="3"/>
<circle cx="358.5" cy="1071.5" r="622" stroke="#FFBC39" stroke-width="3"/>
<circle cx="358.5" cy="1071.5" r="614" stroke="#FFBC39" stroke-width="3"/>
<circle cx="358.5" cy="1071.5" r="606" stroke="#FFBC39" stroke-width="3"/>
<circle cx="358.5" cy="1071.5" r="598" stroke="#FFBC39" stroke-width="3"/>
<circle cx="358.5" cy="1071.5" r="590" stroke="#FFBC39" stroke-width="3"/>
<circle cx="358.5" cy="1071.5" r="581" stroke="#FFBC39" stroke-width="3"/>
<circle cx="358.5" cy="1071.5" r="573" stroke="#FFBC39" stroke-width="3"/>
<circle cx="358.5" cy="1071.5" r="565" stroke="#FFBC39" stroke-width="3"/>
<circle cx="358.5" cy="1071.5" r="557" stroke="#FFBC39" stroke-width="3"/>
<circle cx="358.5" cy="1071.5" r="549" stroke="#FFBC39" stroke-width="3"/>
<circle cx="358.5" cy="1071.5" r="541" stroke="#FFBC39" stroke-width="3"/>
<circle cx="358.5" cy="1071.5" r="532" stroke="#FFBC39" stroke-width="3"/>
<circle cx="358.5" cy="1071.5" r="524" stroke="#FFBC39" stroke-width="3"/>
<circle cx="358.5" cy="1071.5" r="516" stroke="#FFBC39" stroke-width="3"/>
<circle cx="358.5" cy="1071.5" r="508" stroke="#FFBC39" stroke-width="3"/>
<circle cx="358.5" cy="1071.5" r="500" stroke="#FFBC39" stroke-width="3"/>
<circle cx="358.5" cy="1071.5" r="492" stroke="#FFBC39" stroke-width="3"/>
<circle cx="358.5" cy="1071.5" r="484" stroke="#FFBC39" stroke-width="3"/>
<circle cx="358.5" cy="1071.5" r="475" stroke="#FFBC39" stroke-width="3"/>
<circle cx="358.5" cy="1071.5" r="467" stroke="#FFBC39" stroke-width="3"/>
<circle cx="358.5" cy="1071.5" r="459" stroke="#FFBC39" stroke-width="3"/>
<circle cx="358.5" cy="1071.5" r="451" stroke="#FFBC39" stroke-width="3"/>
<circle cx="358.5" cy="1071.5" r="443" stroke="#FFBC39" stroke-width="3"/>
<circle cx="358.5" cy="1071.5" r="435" stroke="#FFBC39" stroke-width="3"/>
<circle cx="358.5" cy="1071.5" r="426" stroke="#FFBC39" stroke-width="3"/>
<circle cx="358.5" cy="1071.5" r="418" stroke="#FFBC39" stroke-width="3"/>
<circle cx="358.5" cy="1071.5" r="410" stroke="#FFBC39" stroke-width="3"/>
<circle cx="358.5" cy="1071.5" r="402" stroke="#FFBC39" stroke-width="3"/>
<circle cx="358.5" cy="1071.5" r="394" stroke="#FFBC39" stroke-width="3"/>
<circle cx="358.5" cy="1071.5" r="386" stroke="#FFBC39" stroke-width="3"/>
<circle cx="358.5" cy="1071.5" r="378" stroke="#FFBC39" stroke-width="3"/>
<circle cx="358.5" cy="1071.5" r="369" stroke="#FFBC39" stroke-width="3"/>
<circle cx="358.5" cy="1071.5" r="361" stroke="#FFBC39" stroke-width="3"/>
<circle cx="358.5" cy="1071.5" r="353" stroke="#FFBC39" stroke-width="3"/>
<circle cx="358.5" cy="1071.5" r="345" stroke="#FFBC39" stroke-width="3"/>
<circle cx="358.5" cy="1071.5" r="337" stroke="#FFBC39" stroke-width="3"/>
<circle cx="358.5" cy="1071.5" r="329" stroke="#FFBC39" stroke-width="3"/>
<circle cx="358.5" cy="1071.5" r="320" stroke="#FFBC39" stroke-width="3"/>
<circle cx="358.5" cy="1071.5" r="312" stroke="#FFBC39" stroke-width="3"/>
<circle cx="358.5" cy="1071.5" r="304" stroke="#FFBC39" stroke-width="3"/>
<circle cx="358.5" cy="1071.5" r="296" stroke="#FFBC39" stroke-width="3"/>
<circle cx="358.5" cy="1071.5" r="288" stroke="#FFBC39" stroke-width="3"/>
<circle cx="358.5" cy="1071.5" r="280" stroke="#FFBC39" stroke-width="3"/>
<circle cx="358.5" cy="1071.5" r="272" stroke="#FFBC39" stroke-width="3"/>
<circle cx="358.5" cy="1071.5" r="263" stroke="#FFBC39" stroke-width="3"/>
<circle cx="358.5" cy="1071.5" r="255" stroke="#FFBC39" stroke-width="3"/>
<circle cx="358.5" cy="1071.5" r="247" stroke="#FFBC39" stroke-width="3"/>
<circle cx="358.5" cy="1071.5" r="239" stroke="#FFBC39" stroke-width="3"/>
<circle cx="358.5" cy="1071.5" r="231" stroke="#FFBC39" stroke-width="3"/>
<circle cx="358.5" cy="1071.5" r="223" stroke="#FFBC39" stroke-width="3"/>
<circle cx="358.5" cy="1071.5" r="215" stroke="#FFBC39" stroke-width="3"/>
<circle cx="358.5" cy="1071.5" r="206" stroke="#FFBC39" stroke-width="3"/>
<circle cx="358.5" cy="1071.5" r="198" stroke="#FFBC39" stroke-width="3"/>
<circle cx="358.5" cy="1071.5" r="190" stroke="#FFBC39" stroke-width="3"/>
<circle cx="358.5" cy="1071.5" r="182" stroke="#FFBC39" stroke-width="3"/>
<circle cx="358.5" cy="1071.5" r="174" stroke="#FFBC39" stroke-width="3"/>
<circle cx="358.5" cy="1071.5" r="166" stroke="#FFBC39" stroke-width="3"/>
<circle cx="358.5" cy="1071.5" r="157" stroke="#FFBC39" stroke-width="3"/>
<circle cx="358.5" cy="1071.5" r="149" stroke="#FFBC39" stroke-width="3"/>
<circle cx="358.5" cy="1071.5" r="141" stroke="#FFBC39" stroke-width="3"/>
<circle cx="358.5" cy="1071.5" r="133" stroke="#FFBC39" stroke-width="3"/>
<circle cx="358.5" cy="1071.5" r="125" stroke="#FFBC39" stroke-width="3"/>
<circle cx="358.5" cy="1071.5" r="117" stroke="#FFBC39" stroke-width="3"/>
<circle cx="358.5" cy="1071.5" r="109" stroke="#FFBC39" stroke-width="3"/>
<circle cx="358.5" cy="1071.5" r="100" stroke="#FFBC39" stroke-width="3"/>
<circle cx="358.5" cy="1071.5" r="92" stroke="#FFBC39" stroke-width="3"/>
<circle cx="358.5" cy="1071.5" r="84" stroke="#FFBC39" stroke-width="3"/>
<circle cx="358.5" cy="1071.5" r="76" stroke="#FFBC39" stroke-width="3"/>
<circle cx="358.5" cy="1071.5" r="68" stroke="#FFBC39" stroke-width="3"/>
<circle cx="358.5" cy="1071.5" r="60" stroke="#FFBC39" stroke-width="3"/>
<circle cx="358.5" cy="1071.5" r="51" stroke="#FFBC39" stroke-width="3"/>
<circle cx="358.5" cy="1071.5" r="43" stroke="#FFBC39" stroke-width="3"/>
<circle cx="358.5" cy="1071.5" r="35" stroke="#FFBC39" stroke-width="3"/>
<circle cx="358.5" cy="1071.5" r="27" stroke="#FFBC39" stroke-width="3"/>
<circle cx="358.5" cy="1071.5" r="19" stroke="#FFBC39" stroke-width="3"/>
<circle cx="358.5" cy="1071.5" r="11" stroke="#FFBC39" stroke-width="3"/>
<circle cx="358.5" cy="1071.5" r="3" stroke="#FFBC39" stroke-width="3"/>
</g>
<g opacity="0.3">
<circle cx="1511.5" cy="329.5" r="777" stroke="#FFBC39" stroke-width="3"/>
<circle cx="1511.5" cy="329.5" r="769" stroke="#FFBC39" stroke-width="3"/>
<circle cx="1511.5" cy="329.5" r="761" stroke="#FFBC39" stroke-width="3"/>
<circle cx="1511.5" cy="329.5" r="744" stroke="#FFBC39" stroke-width="3"/>
<circle cx="1511.5" cy="329.5" r="753" stroke="#FFBC39" stroke-width="3"/>
<circle cx="1511.5" cy="329.5" r="736" stroke="#FFBC39" stroke-width="3"/>
<circle cx="1511.5" cy="329.5" r="728" stroke="#FFBC39" stroke-width="3"/>
<circle cx="1511.5" cy="329.5" r="720" stroke="#FFBC39" stroke-width="3"/>
<circle cx="1511.5" cy="329.5" r="712" stroke="#FFBC39" stroke-width="3"/>
<circle cx="1511.5" cy="329.5" r="704" stroke="#FFBC39" stroke-width="3"/>
<circle cx="1511.5" cy="329.5" r="704" stroke="#FFBC39" stroke-width="3"/>
<circle cx="1511.5" cy="329.5" r="695" stroke="#FFBC39" stroke-width="3"/>
<circle cx="1511.5" cy="329.5" r="687" stroke="#FFBC39" stroke-width="3"/>
<circle cx="1511.5" cy="329.5" r="679" stroke="#FFBC39" stroke-width="3"/>
<circle cx="1511.5" cy="329.5" r="671" stroke="#FFBC39" stroke-width="3"/>
<circle cx="1511.5" cy="329.5" r="663" stroke="#FFBC39" stroke-width="3"/>
<circle cx="1511.5" cy="329.5" r="655" stroke="#FFBC39" stroke-width="3"/>
<circle cx="1511.5" cy="329.5" r="647" stroke="#FFBC39" stroke-width="3"/>
<circle cx="1511.5" cy="329.5" r="638" stroke="#FFBC39" stroke-width="3"/>
<circle cx="1511.5" cy="329.5" r="630" stroke="#FFBC39" stroke-width="3"/>
<circle cx="1511.5" cy="329.5" r="622" stroke="#FFBC39" stroke-width="3"/>
<circle cx="1511.5" cy="329.5" r="614" stroke="#FFBC39" stroke-width="3"/>
<circle cx="1511.5" cy="329.5" r="606" stroke="#FFBC39" stroke-width="3"/>
<circle cx="1511.5" cy="329.5" r="598" stroke="#FFBC39" stroke-width="3"/>
<circle cx="1511.5" cy="329.5" r="590" stroke="#FFBC39" stroke-width="3"/>
<circle cx="1511.5" cy="329.5" r="581" stroke="#FFBC39" stroke-width="3"/>
<circle cx="1511.5" cy="329.5" r="573" stroke="#FFBC39" stroke-width="3"/>
<circle cx="1511.5" cy="329.5" r="565" stroke="#FFBC39" stroke-width="3"/>
<circle cx="1511.5" cy="329.5" r="557" stroke="#FFBC39" stroke-width="3"/>
<circle cx="1511.5" cy="329.5" r="549" stroke="#FFBC39" stroke-width="3"/>
<circle cx="1511.5" cy="329.5" r="541" stroke="#FFBC39" stroke-width="3"/>
<circle cx="1511.5" cy="329.5" r="532" stroke="#FFBC39" stroke-width="3"/>
<circle cx="1511.5" cy="329.5" r="524" stroke="#FFBC39" stroke-width="3"/>
<circle cx="1511.5" cy="329.5" r="516" stroke="#FFBC39" stroke-width="3"/>
<circle cx="1511.5" cy="329.5" r="508" stroke="#FFBC39" stroke-width="3"/>
<circle cx="1511.5" cy="329.5" r="500" stroke="#FFBC39" stroke-width="3"/>
<circle cx="1511.5" cy="329.5" r="492" stroke="#FFBC39" stroke-width="3"/>
<circle cx="1511.5" cy="329.5" r="484" stroke="#FFBC39" stroke-width="3"/>
<circle cx="1511.5" cy="329.5" r="475" stroke="#FFBC39" stroke-width="3"/>
<circle cx="1511.5" cy="329.5" r="467" stroke="#FFBC39" stroke-width="3"/>
<circle cx="1511.5" cy="329.5" r="459" stroke="#FFBC39" stroke-width="3"/>
<circle cx="1511.5" cy="329.5" r="451" stroke="#FFBC39" stroke-width="3"/>
<circle cx="1511.5" cy="329.5" r="443" stroke="#FFBC39" stroke-width="3"/>
<circle cx="1511.5" cy="329.5" r="435" stroke="#FFBC39" stroke-width="3"/>
<circle cx="1511.5" cy="329.5" r="426" stroke="#FFBC39" stroke-width="3"/>
<circle cx="1511.5" cy="329.5" r="418" stroke="#FFBC39" stroke-width="3"/>
<circle cx="1511.5" cy="329.5" r="410" stroke="#FFBC39" stroke-width="3"/>
<circle cx="1511.5" cy="329.5" r="402" stroke="#FFBC39" stroke-width="3"/>
<circle cx="1511.5" cy="329.5" r="394" stroke="#FFBC39" stroke-width="3"/>
<circle cx="1511.5" cy="329.5" r="386" stroke="#FFBC39" stroke-width="3"/>
<circle cx="1511.5" cy="329.5" r="378" stroke="#FFBC39" stroke-width="3"/>
<circle cx="1511.5" cy="329.5" r="369" stroke="#FFBC39" stroke-width="3"/>
<circle cx="1511.5" cy="329.5" r="361" stroke="#FFBC39" stroke-width="3"/>
<circle cx="1511.5" cy="329.5" r="353" stroke="#FFBC39" stroke-width="3"/>
<circle cx="1511.5" cy="329.5" r="345" stroke="#FFBC39" stroke-width="3"/>
<circle cx="1511.5" cy="329.5" r="337" stroke="#FFBC39" stroke-width="3"/>
<circle cx="1511.5" cy="329.5" r="329" stroke="#FFBC39" stroke-width="3"/>
<circle cx="1511.5" cy="329.5" r="320" stroke="#FFBC39" stroke-width="3"/>
<circle cx="1511.5" cy="329.5" r="312" stroke="#FFBC39" stroke-width="3"/>
<circle cx="1511.5" cy="329.5" r="304" stroke="#FFBC39" stroke-width="3"/>
<circle cx="1511.5" cy="329.5" r="296" stroke="#FFBC39" stroke-width="3"/>
<circle cx="1511.5" cy="329.5" r="288" stroke="#FFBC39" stroke-width="3"/>
<circle cx="1511.5" cy="329.5" r="280" stroke="#FFBC39" stroke-width="3"/>
<circle cx="1511.5" cy="329.5" r="272" stroke="#FFBC39" stroke-width="3"/>
<circle cx="1511.5" cy="329.5" r="263" stroke="#FFBC39" stroke-width="3"/>
<circle cx="1511.5" cy="329.5" r="255" stroke="#FFBC39" stroke-width="3"/>
<circle cx="1511.5" cy="329.5" r="247" stroke="#FFBC39" stroke-width="3"/>
<circle cx="1511.5" cy="329.5" r="239" stroke="#FFBC39" stroke-width="3"/>
<circle cx="1511.5" cy="329.5" r="231" stroke="#FFBC39" stroke-width="3"/>
<circle cx="1511.5" cy="329.5" r="223" stroke="#FFBC39" stroke-width="3"/>
<circle cx="1511.5" cy="329.5" r="215" stroke="#FFBC39" stroke-width="3"/>
<circle cx="1511.5" cy="329.5" r="206" stroke="#FFBC39" stroke-width="3"/>
<circle cx="1511.5" cy="329.5" r="198" stroke="#FFBC39" stroke-width="3"/>
<circle cx="1511.5" cy="329.5" r="190" stroke="#FFBC39" stroke-width="3"/>
<circle cx="1511.5" cy="329.5" r="182" stroke="#FFBC39" stroke-width="3"/>
<circle cx="1511.5" cy="329.5" r="174" stroke="#FFBC39" stroke-width="3"/>
<circle cx="1511.5" cy="329.5" r="166" stroke="#FFBC39" stroke-width="3"/>
<circle cx="1511.5" cy="329.5" r="157" stroke="#FFBC39" stroke-width="3"/>
<circle cx="1511.5" cy="329.5" r="149" stroke="#FFBC39" stroke-width="3"/>
<circle cx="1511.5" cy="329.5" r="141" stroke="#FFBC39" stroke-width="3"/>
<circle cx="1511.5" cy="329.5" r="133" stroke="#FFBC39" stroke-width="3"/>
<circle cx="1511.5" cy="329.5" r="125" stroke="#FFBC39" stroke-width="3"/>
<circle cx="1511.5" cy="329.5" r="117" stroke="#FFBC39" stroke-width="3"/>
<circle cx="1511.5" cy="329.5" r="109" stroke="#FFBC39" stroke-width="3"/>
<circle cx="1511.5" cy="329.5" r="100" stroke="#FFBC39" stroke-width="3"/>
<circle cx="1511.5" cy="329.5" r="92" stroke="#FFBC39" stroke-width="3"/>
<circle cx="1511.5" cy="329.5" r="84" stroke="#FFBC39" stroke-width="3"/>
<circle cx="1511.5" cy="329.5" r="76" stroke="#FFBC39" stroke-width="3"/>
<circle cx="1511.5" cy="329.5" r="68" stroke="#FFBC39" stroke-width="3"/>
<circle cx="1511.5" cy="329.5" r="60" stroke="#FFBC39" stroke-width="3"/>
<circle cx="1511.5" cy="329.5" r="51" stroke="#FFBC39" stroke-width="3"/>
<circle cx="1511.5" cy="329.5" r="43" stroke="#FFBC39" stroke-width="3"/>
<circle cx="1511.5" cy="329.5" r="35" stroke="#FFBC39" stroke-width="3"/>
<circle cx="1511.5" cy="329.5" r="27" stroke="#FFBC39" stroke-width="3"/>
<circle cx="1511.5" cy="329.5" r="19" stroke="#FFBC39" stroke-width="3"/>
<circle cx="1511.5" cy="329.5" r="11" stroke="#FFBC39" stroke-width="3"/>
<circle cx="1511.5" cy="329.5" r="3" stroke="#FFBC39" stroke-width="3"/>
</g>
</g>
<defs>
<clipPath id="clip0_711_6223">
<rect width="1740" height="2432" fill="white"/>
</clipPath>
</defs>
</svg>
