<svg width="2277" height="2190" viewBox="0 0 2277 2190" fill="none" xmlns="http://www.w3.org/2000/svg">
<g clip-path="url(#clip0_1079_3401)">
<rect width="2277" height="2190" fill="#FCFCFC"/>
<g opacity="0.3">
<circle cx="243.5" cy="1210.5" r="777" stroke="#FAAB11" stroke-width="3"/>
<circle cx="243.5" cy="1210.5" r="769" stroke="#FAAB11" stroke-width="3"/>
<circle cx="243.5" cy="1210.5" r="761" stroke="#FAAB11" stroke-width="3"/>
<circle cx="243.5" cy="1210.5" r="744" stroke="#FAAB11" stroke-width="3"/>
<circle cx="243.5" cy="1210.5" r="753" stroke="#FAAB11" stroke-width="3"/>
<circle cx="243.5" cy="1210.5" r="736" stroke="#FAAB11" stroke-width="3"/>
<circle cx="243.5" cy="1210.5" r="728" stroke="#FAAB11" stroke-width="3"/>
<circle cx="243.5" cy="1210.5" r="720" stroke="#FAAB11" stroke-width="3"/>
<circle cx="243.5" cy="1210.5" r="712" stroke="#FAAB11" stroke-width="3"/>
<circle cx="243.5" cy="1210.5" r="704" stroke="#FAAB11" stroke-width="3"/>
<circle cx="243.5" cy="1210.5" r="704" stroke="#FAAB11" stroke-width="3"/>
<circle cx="243.5" cy="1210.5" r="695" stroke="#FAAB11" stroke-width="3"/>
<circle cx="243.5" cy="1210.5" r="687" stroke="#FAAB11" stroke-width="3"/>
<circle cx="243.5" cy="1210.5" r="679" stroke="#FAAB11" stroke-width="3"/>
<circle cx="243.5" cy="1210.5" r="671" stroke="#FAAB11" stroke-width="3"/>
<circle cx="243.5" cy="1210.5" r="663" stroke="#FAAB11" stroke-width="3"/>
<circle cx="243.5" cy="1210.5" r="655" stroke="#FAAB11" stroke-width="3"/>
<circle cx="243.5" cy="1210.5" r="647" stroke="#FAAB11" stroke-width="3"/>
<circle cx="243.5" cy="1210.5" r="638" stroke="#FAAB11" stroke-width="3"/>
<circle cx="243.5" cy="1210.5" r="630" stroke="#FAAB11" stroke-width="3"/>
<circle cx="243.5" cy="1210.5" r="622" stroke="#FAAB11" stroke-width="3"/>
<circle cx="243.5" cy="1210.5" r="614" stroke="#FAAB11" stroke-width="3"/>
<circle cx="243.5" cy="1210.5" r="606" stroke="#FAAB11" stroke-width="3"/>
<circle cx="243.5" cy="1210.5" r="598" stroke="#FAAB11" stroke-width="3"/>
<circle cx="243.5" cy="1210.5" r="590" stroke="#FAAB11" stroke-width="3"/>
<circle cx="243.5" cy="1210.5" r="581" stroke="#FAAB11" stroke-width="3"/>
<circle cx="243.5" cy="1210.5" r="573" stroke="#FAAB11" stroke-width="3"/>
<circle cx="243.5" cy="1210.5" r="565" stroke="#FAAB11" stroke-width="3"/>
<circle cx="243.5" cy="1210.5" r="557" stroke="#FAAB11" stroke-width="3"/>
<circle cx="243.5" cy="1210.5" r="549" stroke="#FAAB11" stroke-width="3"/>
<circle cx="243.5" cy="1210.5" r="541" stroke="#FAAB11" stroke-width="3"/>
<circle cx="243.5" cy="1210.5" r="532" stroke="#FAAB11" stroke-width="3"/>
<circle cx="243.5" cy="1210.5" r="524" stroke="#FAAB11" stroke-width="3"/>
<circle cx="243.5" cy="1210.5" r="516" stroke="#FAAB11" stroke-width="3"/>
<circle cx="243.5" cy="1210.5" r="508" stroke="#FAAB11" stroke-width="3"/>
<circle cx="243.5" cy="1210.5" r="500" stroke="#FAAB11" stroke-width="3"/>
<circle cx="243.5" cy="1210.5" r="492" stroke="#FAAB11" stroke-width="3"/>
<circle cx="243.5" cy="1210.5" r="484" stroke="#FAAB11" stroke-width="3"/>
<circle cx="243.5" cy="1210.5" r="475" stroke="#FAAB11" stroke-width="3"/>
<circle cx="243.5" cy="1210.5" r="467" stroke="#FAAB11" stroke-width="3"/>
<circle cx="243.5" cy="1210.5" r="459" stroke="#FAAB11" stroke-width="3"/>
<circle cx="243.5" cy="1210.5" r="451" stroke="#FAAB11" stroke-width="3"/>
<circle cx="243.5" cy="1210.5" r="443" stroke="#FAAB11" stroke-width="3"/>
<circle cx="243.5" cy="1210.5" r="435" stroke="#FAAB11" stroke-width="3"/>
<circle cx="243.5" cy="1210.5" r="426" stroke="#FAAB11" stroke-width="3"/>
<circle cx="243.5" cy="1210.5" r="418" stroke="#FAAB11" stroke-width="3"/>
<circle cx="243.5" cy="1210.5" r="410" stroke="#FAAB11" stroke-width="3"/>
<circle cx="243.5" cy="1210.5" r="402" stroke="#FAAB11" stroke-width="3"/>
<circle cx="243.5" cy="1210.5" r="394" stroke="#FAAB11" stroke-width="3"/>
<circle cx="243.5" cy="1210.5" r="386" stroke="#FAAB11" stroke-width="3"/>
<circle cx="243.5" cy="1210.5" r="378" stroke="#FAAB11" stroke-width="3"/>
<circle cx="243.5" cy="1210.5" r="369" stroke="#FAAB11" stroke-width="3"/>
<circle cx="243.5" cy="1210.5" r="361" stroke="#FAAB11" stroke-width="3"/>
<circle cx="243.5" cy="1210.5" r="353" stroke="#FAAB11" stroke-width="3"/>
<circle cx="243.5" cy="1210.5" r="345" stroke="#FAAB11" stroke-width="3"/>
<circle cx="243.5" cy="1210.5" r="337" stroke="#FAAB11" stroke-width="3"/>
<circle cx="243.5" cy="1210.5" r="329" stroke="#FAAB11" stroke-width="3"/>
<circle cx="243.5" cy="1210.5" r="320" stroke="#FAAB11" stroke-width="3"/>
<circle cx="243.5" cy="1210.5" r="312" stroke="#FAAB11" stroke-width="3"/>
<circle cx="243.5" cy="1210.5" r="304" stroke="#FAAB11" stroke-width="3"/>
<circle cx="243.5" cy="1210.5" r="296" stroke="#FAAB11" stroke-width="3"/>
<circle cx="243.5" cy="1210.5" r="288" stroke="#FAAB11" stroke-width="3"/>
<circle cx="243.5" cy="1210.5" r="280" stroke="#FAAB11" stroke-width="3"/>
<circle cx="243.5" cy="1210.5" r="272" stroke="#FAAB11" stroke-width="3"/>
<circle cx="243.5" cy="1210.5" r="263" stroke="#FAAB11" stroke-width="3"/>
<circle cx="243.5" cy="1210.5" r="255" stroke="#FAAB11" stroke-width="3"/>
<circle cx="243.5" cy="1210.5" r="247" stroke="#FAAB11" stroke-width="3"/>
<circle cx="243.5" cy="1210.5" r="239" stroke="#FAAB11" stroke-width="3"/>
<circle cx="243.5" cy="1210.5" r="231" stroke="#FAAB11" stroke-width="3"/>
<circle cx="243.5" cy="1210.5" r="223" stroke="#FAAB11" stroke-width="3"/>
<circle cx="243.5" cy="1210.5" r="215" stroke="#FAAB11" stroke-width="3"/>
<circle cx="243.5" cy="1210.5" r="206" stroke="#FAAB11" stroke-width="3"/>
<circle cx="243.5" cy="1210.5" r="198" stroke="#FAAB11" stroke-width="3"/>
<circle cx="243.5" cy="1210.5" r="190" stroke="#FAAB11" stroke-width="3"/>
<circle cx="243.5" cy="1210.5" r="182" stroke="#FAAB11" stroke-width="3"/>
<circle cx="243.5" cy="1210.5" r="174" stroke="#FAAB11" stroke-width="3"/>
<circle cx="243.5" cy="1210.5" r="166" stroke="#FAAB11" stroke-width="3"/>
<circle cx="243.5" cy="1210.5" r="157" stroke="#FAAB11" stroke-width="3"/>
<circle cx="243.5" cy="1210.5" r="149" stroke="#FAAB11" stroke-width="3"/>
<circle cx="243.5" cy="1210.5" r="141" stroke="#FAAB11" stroke-width="3"/>
<circle cx="243.5" cy="1210.5" r="133" stroke="#FAAB11" stroke-width="3"/>
<circle cx="243.5" cy="1210.5" r="125" stroke="#FAAB11" stroke-width="3"/>
<circle cx="243.5" cy="1210.5" r="117" stroke="#FAAB11" stroke-width="3"/>
<circle cx="243.5" cy="1210.5" r="109" stroke="#FAAB11" stroke-width="3"/>
<circle cx="243.5" cy="1210.5" r="100" stroke="#FAAB11" stroke-width="3"/>
<circle cx="243.5" cy="1210.5" r="92" stroke="#FAAB11" stroke-width="3"/>
<circle cx="243.5" cy="1210.5" r="84" stroke="#FAAB11" stroke-width="3"/>
<circle cx="243.5" cy="1210.5" r="76" stroke="#FAAB11" stroke-width="3"/>
<circle cx="243.5" cy="1210.5" r="68" stroke="#FAAB11" stroke-width="3"/>
<circle cx="243.5" cy="1210.5" r="60" stroke="#FAAB11" stroke-width="3"/>
<circle cx="243.5" cy="1210.5" r="51" stroke="#FAAB11" stroke-width="3"/>
<circle cx="243.5" cy="1210.5" r="43" stroke="#FAAB11" stroke-width="3"/>
<circle cx="243.5" cy="1210.5" r="35" stroke="#FAAB11" stroke-width="3"/>
<circle cx="243.5" cy="1210.5" r="27" stroke="#FAAB11" stroke-width="3"/>
<circle cx="243.5" cy="1210.5" r="19" stroke="#FAAB11" stroke-width="3"/>
<circle cx="243.5" cy="1210.5" r="11" stroke="#FAAB11" stroke-width="3"/>
<circle cx="243.5" cy="1210.5" r="3" stroke="#FAAB11" stroke-width="3"/>
</g>
<g opacity="0.3">
<circle cx="1396.5" cy="468.5" r="777" stroke="#FAAB11" stroke-width="3"/>
<circle cx="1396.5" cy="468.5" r="769" stroke="#FAAB11" stroke-width="3"/>
<circle cx="1396.5" cy="468.5" r="761" stroke="#FAAB11" stroke-width="3"/>
<circle cx="1396.5" cy="468.5" r="744" stroke="#FAAB11" stroke-width="3"/>
<circle cx="1396.5" cy="468.5" r="753" stroke="#FAAB11" stroke-width="3"/>
<circle cx="1396.5" cy="468.5" r="736" stroke="#FAAB11" stroke-width="3"/>
<circle cx="1396.5" cy="468.5" r="728" stroke="#FAAB11" stroke-width="3"/>
<circle cx="1396.5" cy="468.5" r="720" stroke="#FAAB11" stroke-width="3"/>
<circle cx="1396.5" cy="468.5" r="712" stroke="#FAAB11" stroke-width="3"/>
<circle cx="1396.5" cy="468.5" r="704" stroke="#FAAB11" stroke-width="3"/>
<circle cx="1396.5" cy="468.5" r="704" stroke="#FAAB11" stroke-width="3"/>
<circle cx="1396.5" cy="468.5" r="695" stroke="#FAAB11" stroke-width="3"/>
<circle cx="1396.5" cy="468.5" r="687" stroke="#FAAB11" stroke-width="3"/>
<circle cx="1396.5" cy="468.5" r="679" stroke="#FAAB11" stroke-width="3"/>
<circle cx="1396.5" cy="468.5" r="671" stroke="#FAAB11" stroke-width="3"/>
<circle cx="1396.5" cy="468.5" r="663" stroke="#FAAB11" stroke-width="3"/>
<circle cx="1396.5" cy="468.5" r="655" stroke="#FAAB11" stroke-width="3"/>
<circle cx="1396.5" cy="468.5" r="647" stroke="#FAAB11" stroke-width="3"/>
<circle cx="1396.5" cy="468.5" r="638" stroke="#FAAB11" stroke-width="3"/>
<circle cx="1396.5" cy="468.5" r="630" stroke="#FAAB11" stroke-width="3"/>
<circle cx="1396.5" cy="468.5" r="622" stroke="#FAAB11" stroke-width="3"/>
<circle cx="1396.5" cy="468.5" r="614" stroke="#FAAB11" stroke-width="3"/>
<circle cx="1396.5" cy="468.5" r="606" stroke="#FAAB11" stroke-width="3"/>
<circle cx="1396.5" cy="468.5" r="598" stroke="#FAAB11" stroke-width="3"/>
<circle cx="1396.5" cy="468.5" r="590" stroke="#FAAB11" stroke-width="3"/>
<circle cx="1396.5" cy="468.5" r="581" stroke="#FAAB11" stroke-width="3"/>
<circle cx="1396.5" cy="468.5" r="573" stroke="#FAAB11" stroke-width="3"/>
<circle cx="1396.5" cy="468.5" r="565" stroke="#FAAB11" stroke-width="3"/>
<circle cx="1396.5" cy="468.5" r="557" stroke="#FAAB11" stroke-width="3"/>
<circle cx="1396.5" cy="468.5" r="549" stroke="#FAAB11" stroke-width="3"/>
<circle cx="1396.5" cy="468.5" r="541" stroke="#FAAB11" stroke-width="3"/>
<circle cx="1396.5" cy="468.5" r="532" stroke="#FAAB11" stroke-width="3"/>
<circle cx="1396.5" cy="468.5" r="524" stroke="#FAAB11" stroke-width="3"/>
<circle cx="1396.5" cy="468.5" r="516" stroke="#FAAB11" stroke-width="3"/>
<circle cx="1396.5" cy="468.5" r="508" stroke="#FAAB11" stroke-width="3"/>
<circle cx="1396.5" cy="468.5" r="500" stroke="#FAAB11" stroke-width="3"/>
<circle cx="1396.5" cy="468.5" r="492" stroke="#FAAB11" stroke-width="3"/>
<circle cx="1396.5" cy="468.5" r="484" stroke="#FAAB11" stroke-width="3"/>
<circle cx="1396.5" cy="468.5" r="475" stroke="#FAAB11" stroke-width="3"/>
<circle cx="1396.5" cy="468.5" r="467" stroke="#FAAB11" stroke-width="3"/>
<circle cx="1396.5" cy="468.5" r="459" stroke="#FAAB11" stroke-width="3"/>
<circle cx="1396.5" cy="468.5" r="451" stroke="#FAAB11" stroke-width="3"/>
<circle cx="1396.5" cy="468.5" r="443" stroke="#FAAB11" stroke-width="3"/>
<circle cx="1396.5" cy="468.5" r="435" stroke="#FAAB11" stroke-width="3"/>
<circle cx="1396.5" cy="468.5" r="426" stroke="#FAAB11" stroke-width="3"/>
<circle cx="1396.5" cy="468.5" r="418" stroke="#FAAB11" stroke-width="3"/>
<circle cx="1396.5" cy="468.5" r="410" stroke="#FAAB11" stroke-width="3"/>
<circle cx="1396.5" cy="468.5" r="402" stroke="#FAAB11" stroke-width="3"/>
<circle cx="1396.5" cy="468.5" r="394" stroke="#FAAB11" stroke-width="3"/>
<circle cx="1396.5" cy="468.5" r="386" stroke="#FAAB11" stroke-width="3"/>
<circle cx="1396.5" cy="468.5" r="378" stroke="#FAAB11" stroke-width="3"/>
<circle cx="1396.5" cy="468.5" r="369" stroke="#FAAB11" stroke-width="3"/>
<circle cx="1396.5" cy="468.5" r="361" stroke="#FAAB11" stroke-width="3"/>
<circle cx="1396.5" cy="468.5" r="353" stroke="#FAAB11" stroke-width="3"/>
<circle cx="1396.5" cy="468.5" r="345" stroke="#FAAB11" stroke-width="3"/>
<circle cx="1396.5" cy="468.5" r="337" stroke="#FAAB11" stroke-width="3"/>
<circle cx="1396.5" cy="468.5" r="329" stroke="#FAAB11" stroke-width="3"/>
<circle cx="1396.5" cy="468.5" r="320" stroke="#FAAB11" stroke-width="3"/>
<circle cx="1396.5" cy="468.5" r="312" stroke="#FAAB11" stroke-width="3"/>
<circle cx="1396.5" cy="468.5" r="304" stroke="#FAAB11" stroke-width="3"/>
<circle cx="1396.5" cy="468.5" r="296" stroke="#FAAB11" stroke-width="3"/>
<circle cx="1396.5" cy="468.5" r="288" stroke="#FAAB11" stroke-width="3"/>
<circle cx="1396.5" cy="468.5" r="280" stroke="#FAAB11" stroke-width="3"/>
<circle cx="1396.5" cy="468.5" r="272" stroke="#FAAB11" stroke-width="3"/>
<circle cx="1396.5" cy="468.5" r="263" stroke="#FAAB11" stroke-width="3"/>
<circle cx="1396.5" cy="468.5" r="255" stroke="#FAAB11" stroke-width="3"/>
<circle cx="1396.5" cy="468.5" r="247" stroke="#FAAB11" stroke-width="3"/>
<circle cx="1396.5" cy="468.5" r="239" stroke="#FAAB11" stroke-width="3"/>
<circle cx="1396.5" cy="468.5" r="231" stroke="#FAAB11" stroke-width="3"/>
<circle cx="1396.5" cy="468.5" r="223" stroke="#FAAB11" stroke-width="3"/>
<circle cx="1396.5" cy="468.5" r="215" stroke="#FAAB11" stroke-width="3"/>
<circle cx="1396.5" cy="468.5" r="206" stroke="#FAAB11" stroke-width="3"/>
<circle cx="1396.5" cy="468.5" r="198" stroke="#FAAB11" stroke-width="3"/>
<circle cx="1396.5" cy="468.5" r="190" stroke="#FAAB11" stroke-width="3"/>
<circle cx="1396.5" cy="468.5" r="182" stroke="#FAAB11" stroke-width="3"/>
<circle cx="1396.5" cy="468.5" r="174" stroke="#FAAB11" stroke-width="3"/>
<circle cx="1396.5" cy="468.5" r="166" stroke="#FAAB11" stroke-width="3"/>
<circle cx="1396.5" cy="468.5" r="157" stroke="#FAAB11" stroke-width="3"/>
<circle cx="1396.5" cy="468.5" r="149" stroke="#FAAB11" stroke-width="3"/>
<circle cx="1396.5" cy="468.5" r="141" stroke="#FAAB11" stroke-width="3"/>
<circle cx="1396.5" cy="468.5" r="133" stroke="#FAAB11" stroke-width="3"/>
<circle cx="1396.5" cy="468.5" r="125" stroke="#FAAB11" stroke-width="3"/>
<circle cx="1396.5" cy="468.5" r="117" stroke="#FAAB11" stroke-width="3"/>
<circle cx="1396.5" cy="468.5" r="109" stroke="#FAAB11" stroke-width="3"/>
<circle cx="1396.5" cy="468.5" r="100" stroke="#FAAB11" stroke-width="3"/>
<circle cx="1396.5" cy="468.5" r="92" stroke="#FAAB11" stroke-width="3"/>
<circle cx="1396.5" cy="468.5" r="84" stroke="#FAAB11" stroke-width="3"/>
<circle cx="1396.5" cy="468.5" r="76" stroke="#FAAB11" stroke-width="3"/>
<circle cx="1396.5" cy="468.5" r="68" stroke="#FAAB11" stroke-width="3"/>
<circle cx="1396.5" cy="468.5" r="60" stroke="#FAAB11" stroke-width="3"/>
<circle cx="1396.5" cy="468.5" r="51" stroke="#FAAB11" stroke-width="3"/>
<circle cx="1396.5" cy="468.5" r="43" stroke="#FAAB11" stroke-width="3"/>
<circle cx="1396.5" cy="468.5" r="35" stroke="#FAAB11" stroke-width="3"/>
<circle cx="1396.5" cy="468.5" r="27" stroke="#FAAB11" stroke-width="3"/>
<circle cx="1396.5" cy="468.5" r="19" stroke="#FAAB11" stroke-width="3"/>
<circle cx="1396.5" cy="468.5" r="11" stroke="#FAAB11" stroke-width="3"/>
<circle cx="1396.5" cy="468.5" r="3" stroke="#FAAB11" stroke-width="3"/>
</g>
</g>
<defs>
<clipPath id="clip0_1079_3401">
<rect width="2277" height="2190" fill="white"/>
</clipPath>
</defs>
</svg>
